{"title":"Deadly Crossing (2011) DVDrip XviD-sunDox","uid":6347255,"size":734861678,"categoryP":"video","categoryS":"movies","magnet":"?xt=urn:btih:4dccd6dc833998711454e3d2c849f72810019993&amp;dn=Deadly+Crossing+%282011%29+DVDrip+XviD-sunDox&amp;tr=udp%3A%2F%2Ftracker.openbittorrent.com%3A80&amp;tr=udp%3A%2F%2Fopen.demonii.com%3A1337&amp;tr=udp%3A%2F%2Ftracker.coppersurfer.tk%3A6969&amp;tr=udp%3A%2F%2Fexodus.desync.com%3A6969","seeders":0,"leechers":1,"uploader":"sundox","files":2,"time":1303881761,"description":"General\nComplete name : Deadly Crossing[2011]DvDrip-sunDox.avi\nFormat : AVI\nFormat/Info : Audio Video Interleave\nFile size : 701 MiB\nDuration : 1h 26mn\nOverall bit rate : 1 131 Kbps\nWriting application : VirtualDubMod 1.5.4.1 (build 2178/release)\nWriting library : VirtualDubMod build 2178/release\n\nVideo\nID : 0\nFormat : MPEG-4 Visual\nFormat profile : Advanced Simple@L5\nFormat settings, BVOP : 2\nFormat settings, QPel : No\nFormat settings, GMC : No warppoints\nFormat settings, Matrix : Default (H.263)\nMuxing mode : Packed bitstream\nCodec ID : DX50\nCodec ID/Hint : DivX 5\nDuration : 1h 26mn\nBit rate : 993 Kbps\nWidth : 608 pixels\nHeight : 336 pixels\nDisplay aspect ratio : 16:9\nFrame rate : 25.000 fps\nColor space : YUV\nChroma subsampling : 4:2:0\nBit depth : 8 bits\nScan type : Progressive\nCompression mode : Lossy\nBits/(Pixel*Frame) : 0.194\nStream size : 616 MiB (88%)\nWriting library : XviD 1.2.1 (UTC 2008-12-04)\n\nAudio\nID : 1\nFormat : MPEG Audio\nFormat version : Version 1\nFormat profile : Layer 3\nMode : Joint stereo\nCodec ID : 55\nCodec ID/Hint : MP3\nDuration : 1h 26mn\nBit rate mode : Constant\nBit rate : 128 Kbps\nChannel(s) : 2 channels\nSampling rate : 48.0 KHz\nCompression mode : Lossy\nDelay relative to video : 24ms\nStream size : 79.3 MiB (11%)\nAlignment : Aligned on interleaves\nInterleave, duration : 40 ms (1.00 video frame)\nInterleave, preload duration : 504 ms","torrent":{"xt":"urn:btih:4dccd6dc833998711454e3d2c849f72810019993","amp;dn":"Deadly+Crossing+%282011%29+DVDrip+XviD-sunDox","amp;tr":["udp%3A%2F%2Ftracker.openbittorrent.com%3A80","udp%3A%2F%2Fopen.demonii.com%3A1337","udp%3A%2F%2Ftracker.coppersurfer.tk%3A6969","udp%3A%2F%2Fexodus.desync.com%3A6969"],"infoHash":"4dccd6dc833998711454e3d2c849f72810019993","infoHashBuffer":{"type":"Buffer","data":[77,204,214,220,131,57,152,113,20,84,227,210,200,73,247,40,16,1,153,147]},"announce":[],"urlList":[]}}